<svg width="1512" height="982" viewBox="0 0 1512 982" fill="none" xmlns="http://www.w3.org/2000/svg">
<rect width="1512" height="982" fill="#A4CFA8"/>
<path d="M736.156 642.537C618.347 427.715 688.278 489.798 884.122 59.6558L1192.44 -99.5732C1283.39 -109.812 1491.64 -92.7698 1597.06 57.3058C1702.48 207.381 1502.24 379.373 1510.51 566.875C1456.66 696.128 1531.79 895.826 1252.56 987.465C1009.72 1067.16 859.652 867.729 736.156 642.537Z" fill="#0A9A18" fill-opacity="0.9"/>
<path d="M723.993 726.354C545.09 400.129 651.286 494.408 948.691 -158.797L1416.9 -400.599C1555.01 -416.147 1871.26 -390.268 2031.34 -162.366C2191.43 65.5355 1887.36 326.718 1899.91 611.454C1818.14 807.736 1932.22 1110.99 1508.19 1250.15C1139.42 1371.18 911.531 1068.32 723.993 726.354Z" fill="#0A9A18" fill-opacity="0.6"/>
</svg>
